<svg width="61" height="60" viewBox="0 0 61 60" fill="none" xmlns="http://www.w3.org/2000/svg">
<path opacity="0.21" fill-rule="evenodd" clip-rule="evenodd" d="M0.5 30V37C0.5 49.7025 10.7975 60 23.5 60H30.5H37.5C50.2025 60 60.5 49.7025 60.5 37V30V23C60.5 10.2975 50.2025 0 37.5 0H30.5H23.5C10.7975 0 0.5 10.2975 0.5 23V30Z" fill="#BC4AD9"/>
<g clip-path="url(#clip0_292_9614)">
<path d="M24.2534 28.6986C18.7767 28.6986 14.3369 31.1482 14.3369 34.1727C14.3369 37.1973 18.778 39.6469 24.2534 39.6469C29.7301 39.6469 34.1699 37.1973 34.1699 34.1727C34.1699 31.1482 29.7289 28.6986 24.2534 28.6986Z" fill="#9747FF" fill-opacity="0.4"/>
<path fill-rule="evenodd" clip-rule="evenodd" d="M46.8622 21.8371C46.8597 24.8617 42.4225 27.3113 36.9457 27.3113C31.4842 27.3113 27.0546 24.8883 27.0292 21.8777V24.0189C27.0292 25.311 27.8568 26.4939 29.2123 27.4306C30.5831 27.8037 31.8041 28.3216 32.8207 28.9765C34.0811 29.2964 35.4671 29.4918 36.9457 29.4918C42.4225 29.4918 46.8622 27.0435 46.8622 24.0189V21.8371ZM46.8622 25.6448C46.8622 28.6694 42.4225 31.119 36.9457 31.119C36.2794 31.119 35.6321 31.0695 35.0025 30.9997C35.4993 31.6687 35.8382 32.4415 35.9938 33.2602L36.139 33.2685C36.4059 33.284 36.6717 33.2995 36.9457 33.2995C42.4225 33.2995 46.8622 30.8512 46.8622 27.8266V25.6448ZM46.8622 29.4525C46.8597 32.477 42.4225 34.9267 36.9457 34.9267C36.679 34.9267 36.4096 34.9107 36.1465 34.895L35.9938 34.886C35.988 34.9258 35.9832 34.9711 35.9784 35.0173C35.9717 35.0817 35.9648 35.1479 35.9545 35.2034C36.0179 35.395 36.0725 35.5841 36.0725 35.7999V37.0691C36.1565 37.0732 36.2406 37.0781 36.325 37.0831C36.5299 37.0951 36.7362 37.1072 36.9457 37.1072C42.4225 37.1072 46.8622 34.6589 46.8622 31.6343V29.4525ZM46.8622 33.2602C46.8597 36.2847 42.4225 38.7344 36.9457 38.7344C36.679 38.7344 36.4096 38.7183 36.1465 38.7027L35.9938 38.6937C35.988 38.7335 35.9832 38.7788 35.9784 38.825C35.9717 38.8894 35.9648 38.9556 35.9545 39.011C36.0179 39.2014 36.0725 39.3918 36.0725 39.6076V40.8768C36.1565 40.8809 36.2406 40.8858 36.325 40.8908C36.5299 40.9028 36.7362 40.9149 36.9457 40.9149C42.4225 40.9149 46.8622 38.4665 46.8622 35.442V33.2602ZM34.1699 35.7986C34.1674 38.8232 29.7301 41.2728 24.2534 41.2728C18.7919 41.2728 14.3623 38.8499 14.3369 35.838V37.9804C14.3369 41.005 18.7754 43.4546 24.2534 43.4546C29.7314 43.4546 34.1699 41.005 34.1699 37.9804V35.7986ZM34.1699 39.6063C34.1674 42.6309 29.7301 45.0805 24.2534 45.0805C18.7919 45.0805 14.3623 42.6575 14.3369 39.6457V41.7881C14.3369 44.8127 18.7754 47.2623 24.2534 47.2623C29.7314 47.2623 34.1699 44.8127 34.1699 41.7881V39.6063Z" fill="#9747FF"/>
<path d="M36.9457 14.7383C31.469 14.7383 27.0292 17.1866 27.0292 20.2112C27.0292 23.2358 31.4703 25.6854 36.9457 25.6854C42.4225 25.6854 46.8622 23.2358 46.8622 20.2112C46.8622 17.1866 42.4212 14.7383 36.9457 14.7383Z" fill="#9747FF" fill-opacity="0.4"/>
</g>
<defs>
<clipPath id="clip0_292_9614">
<rect width="33" height="33" fill="white" transform="translate(14.0996 14.5)"/>
</clipPath>
</defs>
</svg>
