<svg width="61" height="60" viewBox="0 0 61 60" fill="none" xmlns="http://www.w3.org/2000/svg">
<path opacity="0.21" fill-rule="evenodd" clip-rule="evenodd" d="M0.5 30V37C0.5 49.7025 10.7975 60 23.5 60H30.5H37.5C50.2025 60 60.5 49.7025 60.5 37V30V23C60.5 10.2975 50.2025 0 37.5 0H30.5H23.5C10.7975 0 0.5 10.2975 0.5 23V30Z" fill="#8280FF"/>
<path opacity="0.2" d="M48.1344 23.4703L28.0719 43.5328C27.9558 43.649 27.8179 43.7412 27.6662 43.8041C27.5144 43.867 27.3518 43.8994 27.1875 43.8994C27.0232 43.8994 26.8606 43.867 26.7088 43.8041C26.5571 43.7412 26.4192 43.649 26.3031 43.5328L15.1156 32.2828C14.8814 32.0484 14.7498 31.7306 14.7498 31.3992C14.7498 31.0678 14.8814 30.75 15.1156 30.5156L18.8656 26.7656C18.9817 26.6494 19.1196 26.5572 19.2713 26.4943C19.4231 26.4314 19.5857 26.399 19.75 26.399C19.9143 26.399 20.0769 26.4314 20.2287 26.4943C20.3804 26.5572 20.5183 26.6494 20.6344 26.7656L27.25 33.1844L42.6156 18.0141C42.7317 17.8978 42.8696 17.8057 43.0213 17.7427C43.1731 17.6798 43.3358 17.6475 43.5 17.6475C43.6643 17.6475 43.8269 17.6798 43.9787 17.7427C44.1304 17.8057 44.2683 17.8978 44.3844 18.0141L48.1344 21.7016C48.2506 21.8177 48.3428 21.9555 48.4057 22.1073C48.4686 22.259 48.501 22.4217 48.501 22.5859C48.501 22.7502 48.4686 22.9129 48.4057 23.0646C48.3428 23.2164 48.2506 23.3542 48.1344 23.4703Z" fill="#3D42DF"/>
<path d="M49.0125 20.811L45.2625 17.1297C44.7939 16.6627 44.1593 16.4004 43.4976 16.4004C42.836 16.4004 42.2014 16.6627 41.7328 17.1297L27.25 31.4344L21.5172 25.8719C21.0476 25.4063 20.4127 25.1458 19.7515 25.1473C19.0903 25.1487 18.4566 25.4121 17.9891 25.8797L14.2391 29.6297C13.771 30.0984 13.5082 30.7337 13.5082 31.3961C13.5082 32.0585 13.771 32.6938 14.2391 33.1625L25.4297 44.4125C25.6618 44.6447 25.9375 44.8289 26.2408 44.9546C26.5442 45.0803 26.8693 45.145 27.1976 45.145C27.526 45.145 27.8511 45.0803 28.1545 44.9546C28.4578 44.8289 28.7335 44.6447 28.9656 44.4125L49.0203 24.3531C49.2529 24.1204 49.4373 23.8439 49.5629 23.5397C49.6884 23.2355 49.7527 22.9095 49.752 22.5804C49.7512 22.2513 49.6855 21.9256 49.5587 21.622C49.4318 21.3183 49.2462 21.0427 49.0125 20.811ZM27.1906 42.6485L16 31.3985L19.75 27.6485C19.7545 27.6522 19.7587 27.6564 19.7625 27.661L26.3797 34.0813C26.6133 34.3098 26.9271 34.4378 27.2539 34.4378C27.5807 34.4378 27.8945 34.3098 28.1281 34.0813L43.5094 18.8985L47.25 22.586L27.1906 42.6485Z" fill="#8B8EED"/>
</svg>
