<svg width="20" height="21" viewBox="0 0 20 21" fill="none" xmlns="http://www.w3.org/2000/svg">
<path d="M10 2.55542C14.6025 2.55542 18.3334 6.28625 18.3334 10.8888C18.3334 15.4913 14.6025 19.2221 10 19.2221C5.39752 19.2221 1.66669 15.4913 1.66669 10.8888C1.66669 6.28625 5.39752 2.55542 10 2.55542ZM10 5.88875C9.77901 5.88875 9.56705 5.97655 9.41076 6.13283C9.25448 6.28911 9.16669 6.50107 9.16669 6.72209V10.8888C9.16673 11.1097 9.25456 11.3217 9.41085 11.4779L11.9109 13.9779C12.068 14.1297 12.2785 14.2137 12.497 14.2118C12.7155 14.2099 12.9245 14.1223 13.079 13.9678C13.2335 13.8133 13.3212 13.6043 13.3231 13.3858C13.325 13.1673 13.241 12.9568 13.0892 12.7996L10.8334 10.5438V6.72209C10.8334 6.50107 10.7456 6.28911 10.5893 6.13283C10.433 5.97655 10.221 5.88875 10 5.88875Z" fill="#344054"/>
</svg>
