<svg width="1024" height="441" viewBox="0 0 1024 441" fill="none" xmlns="http://www.w3.org/2000/svg">
<path fill-rule="evenodd" clip-rule="evenodd" d="M1023.76 -260.902L975.419 -238.835C927.076 -216.767 830.39 -172.633 771.442 -89.8738C712.493 -7.1146 691.283 114.269 615.562 179.862C539.841 245.455 409.611 255.256 321.311 307.974C233.011 360.691 186.642 456.326 163.457 504.143L140.273 551.96L-431.001 165.366L-395.237 130.424C-359.473 95.4816 -287.946 25.5973 -216.418 -44.287C-144.891 -114.171 -73.363 -184.056 -1.83547 -253.94C69.6921 -323.824 141.22 -393.708 212.747 -463.593C284.275 -533.477 355.802 -603.361 391.566 -638.303L427.33 -673.245L1023.76 -260.902Z" fill="white" fill-opacity="0.5"/>
</svg>
