<svg width="974" height="441" viewBox="0 0 974 441" fill="none" xmlns="http://www.w3.org/2000/svg">
<path fill-rule="evenodd" clip-rule="evenodd" d="M973.42 -312.544L929.27 -286.185C885.12 -259.826 796.821 -207.108 716.907 -145.807C636.993 -84.5063 565.466 -14.622 531.676 93.8871C497.886 202.396 501.833 349.53 455.464 445.164C409.095 540.799 312.409 584.933 264.066 607L215.723 629.067L-429.767 165.986L-394.003 131.044C-358.239 96.1015 -286.712 26.2172 -215.184 -43.667C-143.657 -113.551 -72.129 -183.436 -0.60147 -253.32C70.9261 -323.204 142.454 -393.088 213.981 -462.973C285.509 -532.857 357.036 -602.741 392.8 -637.683L428.564 -672.625L973.42 -312.544Z" fill="#E7EBFD"/>
</svg>
