<svg width="34" height="33" viewBox="0 0 34 33" fill="none" xmlns="http://www.w3.org/2000/svg">
<path d="M26.625 4.88867C27.3543 4.88867 28.0538 5.16962 28.5695 5.66972C29.0853 6.16982 29.375 6.84809 29.375 7.55534V26.222C29.375 26.9293 29.0853 27.6075 28.5695 28.1076C28.0538 28.6077 27.3543 28.8887 26.625 28.8887H7.375C6.64565 28.8887 5.94618 28.6077 5.43046 28.1076C4.91473 27.6075 4.625 26.9293 4.625 26.222V7.55534C4.625 6.84809 4.91473 6.16982 5.43046 5.66972C5.94618 5.16962 6.64565 4.88867 7.375 4.88867H26.625ZM25.9375 25.5553V18.4887C25.9375 17.3359 25.4652 16.2303 24.6246 15.4151C23.784 14.6 22.6438 14.142 21.455 14.142C20.2863 14.142 18.925 14.8353 18.265 15.8753V14.3953H14.4288V25.5553H18.265V18.982C18.265 17.9553 19.1175 17.1153 20.1763 17.1153C20.6868 17.1153 21.1764 17.312 21.5374 17.6621C21.8984 18.0121 22.1012 18.4869 22.1012 18.982V25.5553H25.9375ZM9.96 12.302C10.5727 12.302 11.1602 12.066 11.5934 11.6459C12.0266 11.2258 12.27 10.6561 12.27 10.062C12.27 8.82201 11.2387 7.80867 9.96 7.80867C9.3437 7.80867 8.75265 8.04608 8.31686 8.46866C7.88107 8.89124 7.63625 9.46438 7.63625 10.062C7.63625 11.302 8.68125 12.302 9.96 12.302ZM11.8713 25.5553V14.3953H8.0625V25.5553H11.8713Z" fill="#1A4C97"/>
</svg>
