<svg width="20" height="21" viewBox="0 0 20 21" fill="none" xmlns="http://www.w3.org/2000/svg">
<path d="M14.95 14.8438C16.2629 13.5302 17.0004 11.749 17.0004 9.89176C17.0004 8.03455 16.2629 6.25335 14.95 4.93976C14.3001 4.28944 13.5285 3.77355 12.6791 3.42157C11.8298 3.06959 10.9194 2.88843 10 2.88843C9.08062 2.88843 8.17024 3.06959 7.3209 3.42157C6.47156 3.77355 5.69989 4.28944 5.05001 4.93976C3.7371 6.25335 2.99957 8.03455 2.99957 9.89176C2.99957 11.749 3.7371 13.5302 5.05001 14.8438L6.57101 16.3428L8.61401 18.3278L8.74701 18.4458C9.52201 19.0738 10.657 19.0338 11.387 18.3278L13.822 15.9578L14.95 14.8438ZM10 12.8888C9.20436 12.8888 8.4413 12.5727 7.87869 12.0101C7.31608 11.4475 7.00001 10.6844 7.00001 9.88876C7.00001 9.09311 7.31608 8.33005 7.87869 7.76744C8.4413 7.20483 9.20436 6.88876 10 6.88876C10.7957 6.88876 11.5587 7.20483 12.1213 7.76744C12.6839 8.33005 13 9.09311 13 9.88876C13 10.6844 12.6839 11.4475 12.1213 12.0101C11.5587 12.5727 10.7957 12.8888 10 12.8888Z" fill="#344054"/>
</svg>
