<svg width="20" height="18" viewBox="0 0 20 18" fill="none" xmlns="http://www.w3.org/2000/svg">
<path d="M17.5 7.22209V2.22209C17.5 1.30542 16.75 0.55542 15.8333 0.55542H2.49998C1.58331 0.55542 0.841646 1.30542 0.841646 2.22209L0.833313 12.2221C0.833313 13.1388 1.58331 13.8888 2.49998 13.8888H11.6666V9.72209C11.6666 8.33875 12.7833 7.22209 14.1666 7.22209H17.5ZM9.60831 7.78042C9.34165 7.94709 8.99165 7.94709 8.72498 7.78042L2.83331 4.09709C2.74975 4.05018 2.67658 3.9868 2.61822 3.9108C2.55986 3.83479 2.51753 3.74773 2.49379 3.6549C2.47005 3.56206 2.4654 3.46537 2.48011 3.37068C2.49482 3.27599 2.52859 3.18526 2.57938 3.104C2.63017 3.02274 2.69692 2.95263 2.77558 2.89792C2.85425 2.8432 2.94321 2.80501 3.03706 2.78567C3.13091 2.76632 3.22772 2.76623 3.32161 2.78538C3.4155 2.80453 3.50453 2.84253 3.58331 2.89709L9.16665 6.38875L14.75 2.89709C14.8288 2.84253 14.9178 2.80453 15.0117 2.78538C15.1056 2.76623 15.2024 2.76632 15.2962 2.78567C15.3901 2.80501 15.479 2.8432 15.5577 2.89792C15.6364 2.95263 15.7031 3.02274 15.7539 3.104C15.8047 3.18526 15.8385 3.27599 15.8532 3.37068C15.8679 3.46537 15.8632 3.56206 15.8395 3.6549C15.8158 3.74773 15.7734 3.83479 15.7151 3.9108C15.6567 3.9868 15.5835 4.05018 15.5 4.09709L9.60831 7.78042Z" fill="#344054"/>
<path d="M18.3333 10.5554C17.875 10.5554 17.5 10.9304 17.5 11.3888V13.8888C17.5 14.8054 16.75 15.5554 15.8333 15.5554C14.9166 15.5554 14.1666 14.8054 14.1666 13.8888V10.1388C14.1666 9.90542 14.35 9.72209 14.5833 9.72209C14.8166 9.72209 15 9.90542 15 10.1388V13.0554C15 13.5138 15.375 13.8888 15.8333 13.8888C16.2916 13.8888 16.6666 13.5138 16.6666 13.0554V10.1388C16.6666 9.58622 16.4472 9.05631 16.0565 8.66561C15.6658 8.27491 15.1358 8.05542 14.5833 8.05542C14.0308 8.05542 13.5009 8.27491 13.1102 8.66561C12.7195 9.05631 12.5 9.58622 12.5 10.1388V13.8888C12.5 15.7304 13.9916 17.2221 15.8333 17.2221C17.675 17.2221 19.1666 15.7304 19.1666 13.8888V11.3888C19.1666 10.9304 18.7916 10.5554 18.3333 10.5554Z" fill="#344054"/>
</svg>
