<svg width="61" height="60" viewBox="0 0 61 60" fill="none" xmlns="http://www.w3.org/2000/svg">
<path opacity="0.21" fill-rule="evenodd" clip-rule="evenodd" d="M0.5 30V37C0.5 49.7025 10.7975 60 23.5 60H30.5H37.5C50.2025 60 60.5 49.7025 60.5 37V30V23C60.5 10.2975 50.2025 0 37.5 0H30.5H23.5C10.7975 0 0.5 10.2975 0.5 23V30Z" fill="#FEC53D"/>
<g clip-path="url(#clip0_292_9573)">
<path fill-rule="evenodd" clip-rule="evenodd" d="M34.4125 13.8246C34.4125 13.7152 34.369 13.6103 34.2917 13.5329C34.2143 13.4556 34.1094 13.4121 34 13.4121H22.45C21.2466 13.4121 20.0924 13.8902 19.2415 14.7411C18.3905 15.5921 17.9125 16.7462 17.9125 17.9496V41.0496C17.9125 42.253 18.3905 43.4072 19.2415 44.2581C20.0924 45.1091 21.2466 45.5871 22.45 45.5871H38.95C40.1534 45.5871 41.3075 45.1091 42.1585 44.2581C43.0094 43.4072 43.4875 42.253 43.4875 41.0496V24.7922C43.4875 24.6828 43.444 24.5778 43.3667 24.5005C43.2893 24.4231 43.1844 24.3797 43.075 24.3797H35.65C35.3218 24.3797 35.007 24.2493 34.7749 24.0172C34.5429 23.7851 34.4125 23.4704 34.4125 23.1422V13.8246ZM35.65 29.9121C35.9782 29.9121 36.2929 30.0425 36.525 30.2746C36.7571 30.5066 36.8875 30.8214 36.8875 31.1496C36.8875 31.4778 36.7571 31.7926 36.525 32.0247C36.2929 32.2567 35.9782 32.3871 35.65 32.3871H25.75C25.4218 32.3871 25.107 32.2567 24.8749 32.0247C24.6429 31.7926 24.5125 31.4778 24.5125 31.1496C24.5125 30.8214 24.6429 30.5066 24.8749 30.2746C25.107 30.0425 25.4218 29.9121 25.75 29.9121H35.65ZM35.65 36.5121C35.9782 36.5121 36.2929 36.6425 36.525 36.8746C36.7571 37.1066 36.8875 37.4214 36.8875 37.7496C36.8875 38.0778 36.7571 38.3926 36.525 38.6247C36.2929 38.8567 35.9782 38.9871 35.65 38.9871H25.75C25.4218 38.9871 25.107 38.8567 24.8749 38.6247C24.6429 38.3926 24.5125 38.0778 24.5125 37.7496C24.5125 37.4214 24.6429 37.1066 24.8749 36.8746C25.107 36.6425 25.4218 36.5121 25.75 36.5121H35.65Z" fill="#FEC53D"/>
<path opacity="0.4" d="M36.8875 14.3588C36.8875 14.0552 37.2059 13.8622 37.4419 14.0519C37.6415 14.2136 37.8214 14.4017 37.9748 14.6162L42.9463 21.5413C43.0585 21.6997 42.9364 21.9043 42.7417 21.9043H37.3C37.1905 21.9043 37.0856 21.8608 37.0083 21.7835C36.9309 21.7061 36.8875 21.6012 36.8875 21.4918V14.3588Z" fill="#FEC53D"/>
</g>
<defs>
<clipPath id="clip0_292_9573">
<rect width="26.4" height="33" fill="white" transform="translate(17.5 13)"/>
</clipPath>
</defs>
</svg>
