<svg width="16" height="17" viewBox="0 0 16 17" fill="none" xmlns="http://www.w3.org/2000/svg">
<path fill-rule="evenodd" clip-rule="evenodd" d="M0 3.17439C0 2.56818 0.240816 1.9868 0.66947 1.55814C1.09812 1.12949 1.67951 0.888672 2.28571 0.888672H3.33105C3.98629 0.888672 4.55771 1.33515 4.71695 1.97058L5.55886 5.34048C5.62708 5.61324 5.6133 5.90007 5.51924 6.16503C5.42518 6.43 5.25503 6.66131 5.0301 6.83001L4.04495 7.56905C3.9421 7.64601 3.92 7.75877 3.94895 7.83724C4.37896 9.00665 5.05798 10.0686 5.93901 10.9497C6.82003 11.8307 7.88202 12.5097 9.05143 12.9397C9.1299 12.9687 9.24191 12.9466 9.31962 12.8437L10.0587 11.8586C10.2274 11.6336 10.4587 11.4635 10.7236 11.3694C10.9886 11.2754 11.2754 11.2616 11.5482 11.3298L14.9181 12.1717C15.5535 12.331 16 12.9024 16 13.5584V14.603C16 15.2092 15.7592 15.7905 15.3305 16.2192C14.9019 16.6479 14.3205 16.8887 13.7143 16.8887H12C5.37295 16.8887 0 11.5157 0 4.88867V3.17439Z" fill="#344054"/>
</svg>
