<svg width="61" height="60" viewBox="0 0 61 60" fill="none" xmlns="http://www.w3.org/2000/svg">
<path opacity="0.21" fill-rule="evenodd" clip-rule="evenodd" d="M0.5 30V37C0.5 49.7025 10.7975 60 23.5 60H30.5H37.5C50.2025 60 60.5 49.7025 60.5 37V30V23C60.5 10.2975 50.2025 0 37.5 0H30.5H23.5C10.7975 0 0.5 10.2975 0.5 23V30Z" fill="#4AD991"/>
<path d="M31 32.2318V48.8984L16.4167 38.4818V21.8151L31 11.3984L45.5833 21.8151L31 32.2318Z" fill="#4AD991" fill-opacity="0.25"/>
<path d="M31 48.8984V32.2317M31 48.8984L18.1625 39.7276C17.3062 39.1172 16.8792 38.8109 16.6479 38.363C16.4167 37.9151 16.4167 37.388 16.4167 36.338V21.8151M31 48.8984L43.8396 39.7276C44.6937 39.1172 45.1208 38.8109 45.3521 38.363C45.5833 37.9151 45.5833 37.388 45.5833 36.338V21.8151M31 32.2317L16.4167 21.8151M31 32.2317L45.5833 21.8151M16.4167 21.8151L28.5792 13.1276C29.7458 12.2942 30.3333 11.8755 31 11.8755C31.6667 11.8755 32.2521 12.2922 33.4208 13.1276L45.5833 21.8151" stroke="#4AD991" stroke-width="2" stroke-linejoin="round"/>
</svg>
