<svg width="30" height="32" viewBox="0 0 30 32" fill="none" xmlns="http://www.w3.org/2000/svg">
<g clip-path="url(#clip0_292_9766)">
<path d="M29.3097 9.39744C29.3097 6.67283 27.4349 4.48103 25.1183 4.48103C21.9804 4.32422 18.7802 4.26367 15.5097 4.26367H14.4902C11.2277 4.26367 8.02185 4.32422 4.88396 4.48164C2.57303 4.48164 0.69822 6.68555 0.69822 9.41016C0.556619 11.565 0.49658 13.7205 0.499978 15.876C0.494314 18.0314 0.558507 20.1889 0.692556 22.3484C0.692556 25.073 2.56736 27.283 4.8783 27.283C8.17478 27.4465 11.5562 27.5191 14.9943 27.5131C18.4381 27.5252 21.8101 27.4485 25.1103 27.283C27.4269 27.283 29.3017 25.073 29.3017 22.3484C29.4377 20.1869 29.5 18.0314 29.4943 15.8699C29.5072 13.7144 29.4456 11.5569 29.3097 9.39744ZM12.2246 21.8156V9.91814L20.4375 15.8638L12.2246 21.8156Z" fill="#1A4C97"/>
</g>
<defs>
<clipPath id="clip0_292_9766">
<rect width="29" height="31" fill="white" transform="translate(0.5 0.388672)"/>
</clipPath>
</defs>
</svg>
